<svg xmlns="http://www.w3.org/2000/svg" width="222.01" height="44.97" viewBox="0 0 222.01 44.97"><title>Asset 112</title><g id="e82fc550-8793-4e0e-9501-f4132855e826" data-name="Layer 2"><g id="bcfbb8c1-9139-442c-963b-670c82fecd0f" data-name="Layer 3"><path d="M10.15,8.78h5.56l5.54,22.76L32.54,8.78h5.28l.45,32.66H32.54L32.27,21.9,22.58,41.44H17.9l-5-20.51L7.71,41.44H1.85Z" transform="translate(-0.02 -5.93)" style="fill:#334a9c"/><path d="M42.59,17.29h5.86L46.77,29.63a25.58,25.58,0,0,0-.27,3.06,3.61,3.61,0,0,0,1.11,2.69,4,4,0,0,0,2.89,1.09A4.44,4.44,0,0,0,54,35.07c.83-.93,1.43-2.83,1.82-5.68l1.65-12.1h5.87l-1.73,13a18.43,18.43,0,0,1-2,6.8,9.72,9.72,0,0,1-3.75,3.7,11.28,11.28,0,0,1-5.49,1.28,9.69,9.69,0,0,1-7.08-2.56,8.87,8.87,0,0,1-2.63-6.63,44.7,44.7,0,0,1,.58-6.39Z" transform="translate(-0.02 -5.93)" style="fill:#334a9c"/><path d="M85.57,17.29h5.94L88.75,36.68a33.11,33.11,0,0,1-1.63,7.56A10.79,10.79,0,0,1,82.72,49,14.59,14.59,0,0,1,75,50.9a14.55,14.55,0,0,1-6.76-1.48,10.35,10.35,0,0,1-4.29-3.8L69.11,43a8,8,0,0,0,6.07,2.42,8.44,8.44,0,0,0,3.76-.78,6.06,6.06,0,0,0,2.47-2.09,9.49,9.49,0,0,0,1.25-3.92,11,11,0,0,1-7.46,2.86A10.52,10.52,0,0,1,69.84,40,10.06,10.06,0,0,1,66,36a11.88,11.88,0,0,1-1.41-5.77,13.08,13.08,0,0,1,1.84-6.72,13.67,13.67,0,0,1,5-5A12.93,12.93,0,0,1,78,16.67a8.73,8.73,0,0,1,3.79.81,10.33,10.33,0,0,1,3.34,2.74Zm-7.29,5a7.75,7.75,0,0,0-7.87,7.84,5.66,5.66,0,0,0,1.69,4.3A6.25,6.25,0,0,0,76.63,36a8.1,8.1,0,0,0,3.94-1,7.36,7.36,0,0,0,2.86-2.84,7.93,7.93,0,0,0,1-4A5.69,5.69,0,0,0,82.74,24,6.13,6.13,0,0,0,78.28,22.26Z" transform="translate(-0.02 -5.93)" style="fill:#334a9c"/><path d="M117.33,22.28l-5,2.73a6.92,6.92,0,0,0-5.72-2.71,8.81,8.81,0,0,0-4.29,1,7.69,7.69,0,0,0-3,3,8.19,8.19,0,0,0-1.11,4.12A5.93,5.93,0,0,0,100,34.92a6.69,6.69,0,0,0,4.82,1.68,7.8,7.8,0,0,0,6.5-2.86L116,37A13.76,13.76,0,0,1,111,40.73a15.71,15.71,0,0,1-6.57,1.33q-5.64,0-8.89-3.1a10.85,10.85,0,0,1-3.26-8.22,13.89,13.89,0,0,1,14.38-14.07Q113.82,16.67,117.33,22.28Z" transform="translate(-0.02 -5.93)" style="fill:#334a9c"/><path d="M121.65,17.29h5.28l-.42,3.28c1.58-2.6,3.49-3.9,5.71-3.9a3.81,3.81,0,0,1,1.66.42l-2.17,5.39a3.38,3.38,0,0,0-1-.24,3.82,3.82,0,0,0-3.1,2q-1.35,2-2.15,8.11l-1.17,9.08h-6Z" transform="translate(-0.02 -5.93)" style="fill:#334a9c"/><path d="M153.94,17.29h5.94l-3.37,24.15h-5.87l.36-2.59a12.78,12.78,0,0,1-3.62,2.5,9.41,9.41,0,0,1-3.76.71A9.27,9.27,0,0,1,136,38.53a12.72,12.72,0,0,1-2.83-8.21A13.73,13.73,0,0,1,135,23.51a13.33,13.33,0,0,1,4.87-5,12.43,12.43,0,0,1,6.39-1.8,8.61,8.61,0,0,1,4.14,1,8.44,8.44,0,0,1,3.12,3ZM145,36.78a7.22,7.22,0,0,0,3.82-1,7.54,7.54,0,0,0,2.74-3,9.07,9.07,0,0,0,1.1-4.26A6.43,6.43,0,0,0,151,23.87a5.79,5.79,0,0,0-4.39-1.74,7.13,7.13,0,0,0-5.39,2.33,8.39,8.39,0,0,0-2.21,6,6.3,6.3,0,0,0,1.68,4.58A5.75,5.75,0,0,0,145,36.78Z" transform="translate(-0.02 -5.93)" style="fill:#334a9c"/><path d="M166,8.32h5.89l-1.22,9h3.75l-.71,5.1H170l-2.59,19h-5.92l2.61-19h-2.91l.68-5.1h2.92Z" transform="translate(-0.02 -5.93)" style="fill:#334a9c"/><path d="M191.92,34.37l5.22,2.71a12.13,12.13,0,0,1-4.65,3.64,15.08,15.08,0,0,1-6.43,1.34c-3.69,0-6.59-1-8.72-3.1a11,11,0,0,1-3.18-8.26,13.72,13.72,0,0,1,4-10,13,13,0,0,1,9.63-4.07,12.19,12.19,0,0,1,6,1.48A10.58,10.58,0,0,1,198,22.48a12.82,12.82,0,0,1,1.53,6.17,15.7,15.7,0,0,1-.22,2.45H180a5.59,5.59,0,0,0,1.65,4A6,6,0,0,0,186,36.6,8.76,8.76,0,0,0,191.92,34.37Zm1.51-7.63a6.29,6.29,0,0,0-2.22-3.36,6.18,6.18,0,0,0-3.75-1.14,6.93,6.93,0,0,0-3.93,1.17,7.41,7.41,0,0,0-2.67,3.33Z" transform="translate(-0.02 -5.93)" style="fill:#334a9c"/><path d="M203.49,17.29h5.28l-.42,3.28q2.39-3.9,5.71-3.9a3.78,3.78,0,0,1,1.66.42l-2.17,5.39a3.38,3.38,0,0,0-1-.24,3.81,3.81,0,0,0-3.09,2q-1.36,2-2.15,8.11l-1.17,9.08h-6Z" transform="translate(-0.02 -5.93)" style="fill:#334a9c"/><path d="M218.3,34.6A3.74,3.74,0,0,1,222,38.33a3.76,3.76,0,0,1-3.73,3.73,3.53,3.53,0,0,1-2.64-1.1,3.73,3.73,0,0,1,2.64-6.36Z" transform="translate(-0.02 -5.93)" style="fill:#334a9c"/></g><g id="be782f6b-72b3-4f81-9321-045c98f1a71d" data-name="Layer 2"><path d="M9.32,7.4h5.56l5.54,22.76L31.71,7.4H37l.44,32.66H31.71l-.27-19.54L21.75,40.06H17.07l-5-20.52L6.88,40.06H1Z" transform="translate(-0.02 -5.93)" style="fill:#d5539e"/><path d="M41.76,15.9h5.86L45.94,28.25a25.58,25.58,0,0,0-.27,3.06A3.62,3.62,0,0,0,46.78,34a4,4,0,0,0,2.89,1.08,4.44,4.44,0,0,0,3.52-1.39C54,32.75,54.62,30.86,55,28l1.65-12.1h5.87l-1.73,13a18.55,18.55,0,0,1-2,6.81A9.77,9.77,0,0,1,55,39.39a11.19,11.19,0,0,1-5.49,1.29,9.69,9.69,0,0,1-7.08-2.56,8.9,8.9,0,0,1-2.63-6.64,44.94,44.94,0,0,1,.58-6.39Z" transform="translate(-0.02 -5.93)" style="fill:#d5539e"/><path d="M84.74,15.9h5.94L87.92,35.29a33.1,33.1,0,0,1-1.63,7.57,10.85,10.85,0,0,1-4.4,4.77,14.61,14.61,0,0,1-7.75,1.89A14.68,14.68,0,0,1,67.38,48a10.39,10.39,0,0,1-4.3-3.81l5.19-2.66A8.1,8.1,0,0,0,74.35,44a8.44,8.44,0,0,0,3.76-.78,6.16,6.16,0,0,0,2.47-2.1,9.59,9.59,0,0,0,1.25-3.92,11,11,0,0,1-7.46,2.87A10.52,10.52,0,0,1,69,38.63a10.22,10.22,0,0,1-3.87-4,12,12,0,0,1-1.4-5.78,13,13,0,0,1,1.84-6.71,13.55,13.55,0,0,1,5-5,13,13,0,0,1,6.62-1.84A8.59,8.59,0,0,1,81,16.1a10.29,10.29,0,0,1,3.33,2.73Zm-7.29,5a7.75,7.75,0,0,0-7.87,7.83A5.69,5.69,0,0,0,71.27,33a6.28,6.28,0,0,0,4.53,1.62,8.09,8.09,0,0,0,3.94-1,7.27,7.27,0,0,0,2.85-2.84,7.89,7.89,0,0,0,1.06-4,5.68,5.68,0,0,0-1.74-4.25A6.13,6.13,0,0,0,77.45,20.88Z" transform="translate(-0.02 -5.93)" style="fill:#d5539e"/><path d="M116.5,20.9l-5,2.72a6.92,6.92,0,0,0-5.73-2.7,8.66,8.66,0,0,0-4.28,1,7.66,7.66,0,0,0-3,3,8.23,8.23,0,0,0-1.11,4.13,5.9,5.9,0,0,0,1.75,4.47A6.65,6.65,0,0,0,104,35.22a7.8,7.8,0,0,0,6.5-2.86l4.66,3.29a13.78,13.78,0,0,1-4.92,3.7,15.71,15.71,0,0,1-6.57,1.33q-5.64,0-8.89-3.11a10.83,10.83,0,0,1-3.26-8.21,13.91,13.91,0,0,1,14.38-14.08Q113,15.28,116.5,20.9Z" transform="translate(-0.02 -5.93)" style="fill:#d5539e"/><path d="M120.82,15.9h5.28l-.42,3.29c1.58-2.61,3.49-3.91,5.7-3.91a3.7,3.7,0,0,1,1.67.43l-2.17,5.39a3.17,3.17,0,0,0-1-.25,3.81,3.81,0,0,0-3.1,2q-1.35,2-2.15,8.12l-1.17,9.08h-6Z" transform="translate(-0.02 -5.93)" style="fill:#d5539e"/><path d="M153.11,15.9h5.94l-3.37,24.16h-5.87l.36-2.6A12.84,12.84,0,0,1,146.55,40a9.58,9.58,0,0,1-3.76.71,9.3,9.3,0,0,1-7.64-3.53,12.72,12.72,0,0,1-2.83-8.21,13.67,13.67,0,0,1,1.81-6.81,13.33,13.33,0,0,1,4.87-5,12.34,12.34,0,0,1,6.39-1.81,8.38,8.38,0,0,1,7.26,4Zm-8.9,19.5a7.31,7.31,0,0,0,3.82-1,7.57,7.57,0,0,0,2.74-3.06,9.06,9.06,0,0,0,1.1-4.25,6.4,6.4,0,0,0-1.66-4.62,5.8,5.8,0,0,0-4.39-1.75,7.17,7.17,0,0,0-5.39,2.33,8.42,8.42,0,0,0-2.21,6,6.26,6.26,0,0,0,1.68,4.57A5.72,5.72,0,0,0,144.21,35.4Z" transform="translate(-0.02 -5.93)" style="fill:#d5539e"/><path d="M165.21,6.93h5.89l-1.22,9h3.75L172.92,21h-3.73L166.6,40.06h-5.92l2.6-19h-2.9l.68-5.11H164Z" transform="translate(-0.02 -5.93)" style="fill:#d5539e"/><path d="M191.09,33l5.22,2.7a12.06,12.06,0,0,1-4.65,3.65,15.23,15.23,0,0,1-6.43,1.34c-3.69,0-6.59-1-8.72-3.11a11,11,0,0,1-3.18-8.26,13.7,13.7,0,0,1,4-9.95,13,13,0,0,1,9.63-4.08A12.19,12.19,0,0,1,193,16.77a10.52,10.52,0,0,1,4.18,4.33,12.79,12.79,0,0,1,1.53,6.17,15.48,15.48,0,0,1-.22,2.44H179.21a5.57,5.57,0,0,0,1.65,4,6,6,0,0,0,4.32,1.5A8.76,8.76,0,0,0,191.09,33Zm1.51-7.63A6.29,6.29,0,0,0,190.38,22a6.19,6.19,0,0,0-3.75-1.15A6.94,6.94,0,0,0,182.7,22,7.35,7.35,0,0,0,180,25.36Z" transform="translate(-0.02 -5.93)" style="fill:#d5539e"/><path d="M202.66,15.9h5.28l-.42,3.29q2.39-3.92,5.71-3.91a3.66,3.66,0,0,1,1.66.43l-2.17,5.39a3.17,3.17,0,0,0-1-.25,3.81,3.81,0,0,0-3.09,2q-1.37,2-2.15,8.12l-1.17,9.08h-6Z" transform="translate(-0.02 -5.93)" style="fill:#d5539e"/><path d="M217.47,33.22a3.72,3.72,0,1,1-2.64,1.09A3.59,3.59,0,0,1,217.47,33.22Z" transform="translate(-0.02 -5.93)" style="fill:#d5539e"/></g><g id="a22d3aff-0348-4df9-ab38-cc4ac11a37d5" data-name="Layer 1"><path d="M8.32,6.4h5.56l5.54,22.76L30.71,6.4H36l.44,32.66H30.71l-.27-19.54L20.75,39.06H16.07l-5-20.52L5.88,39.06H0Z" transform="translate(-0.02 -5.93)" style="fill:#fff"/><path d="M40.76,14.9h5.86L44.94,27.25a25.58,25.58,0,0,0-.27,3.06A3.62,3.62,0,0,0,45.78,33a4,4,0,0,0,2.89,1.09,4.44,4.44,0,0,0,3.52-1.4C53,31.75,53.62,29.86,54,27l1.66-12.1h5.87l-1.73,13a18.55,18.55,0,0,1-2,6.81A9.7,9.7,0,0,1,54,38.39a11.19,11.19,0,0,1-5.49,1.29,9.69,9.69,0,0,1-7.08-2.56,8.89,8.89,0,0,1-2.63-6.64,44.94,44.94,0,0,1,.58-6.39Z" transform="translate(-0.02 -5.93)" style="fill:#fff"/><path d="M83.73,14.9h6L86.92,34.29a33.1,33.1,0,0,1-1.63,7.57,10.85,10.85,0,0,1-4.4,4.77,14.61,14.61,0,0,1-7.75,1.89A14.55,14.55,0,0,1,66.38,47a10.39,10.39,0,0,1-4.3-3.81l5.19-2.66A8.08,8.08,0,0,0,73.35,43a8.44,8.44,0,0,0,3.76-.78,6.16,6.16,0,0,0,2.47-2.1,9.59,9.59,0,0,0,1.25-3.91,11.11,11.11,0,0,1-7.46,2.86A10.49,10.49,0,0,1,68,37.63a10.22,10.22,0,0,1-3.87-4,12,12,0,0,1-1.4-5.78,13,13,0,0,1,1.84-6.71,13.55,13.55,0,0,1,5-5,13,13,0,0,1,6.62-1.84A8.59,8.59,0,0,1,80,15.1a10.29,10.29,0,0,1,3.33,2.73Zm-7.28,5a7.74,7.74,0,0,0-7.87,7.83A5.69,5.69,0,0,0,70.27,32a6.28,6.28,0,0,0,4.53,1.62,8.09,8.09,0,0,0,3.94-1,7.27,7.27,0,0,0,2.85-2.84,7.89,7.89,0,0,0,1.06-4,5.69,5.69,0,0,0-1.74-4.25A6.13,6.13,0,0,0,76.45,19.88Z" transform="translate(-0.02 -5.93)" style="fill:#fff"/><path d="M115.49,19.9l-5,2.72a6.92,6.92,0,0,0-5.73-2.7,8.66,8.66,0,0,0-4.28,1,7.66,7.66,0,0,0-3,3,8.23,8.23,0,0,0-1.11,4.13,5.93,5.93,0,0,0,1.75,4.48A6.69,6.69,0,0,0,103,34.22a7.8,7.8,0,0,0,6.5-2.86l4.66,3.29a13.78,13.78,0,0,1-4.92,3.7,15.71,15.71,0,0,1-6.57,1.33q-5.64,0-8.89-3.11a10.83,10.83,0,0,1-3.26-8.21,13.91,13.91,0,0,1,14.37-14.08Q112,14.28,115.49,19.9Z" transform="translate(-0.02 -5.93)" style="fill:#fff"/><path d="M119.82,14.9h5.28l-.42,3.29q2.37-3.92,5.7-3.91a3.7,3.7,0,0,1,1.67.43l-2.17,5.39a3.48,3.48,0,0,0-1-.25,3.81,3.81,0,0,0-3.1,2q-1.35,2-2.15,8.12l-1.17,9.08h-6Z" transform="translate(-0.02 -5.93)" style="fill:#fff"/><path d="M152.11,14.9h5.94l-3.37,24.16h-5.87l.36-2.6A12.84,12.84,0,0,1,145.55,39a9.58,9.58,0,0,1-3.76.71,9.29,9.29,0,0,1-7.64-3.53,12.72,12.72,0,0,1-2.83-8.21,13.7,13.7,0,0,1,1.81-6.81,13.33,13.33,0,0,1,4.87-5,12.34,12.34,0,0,1,6.39-1.81,8.38,8.38,0,0,1,7.26,4Zm-8.9,19.5a7.31,7.31,0,0,0,3.82-1,7.57,7.57,0,0,0,2.74-3.06,9.06,9.06,0,0,0,1.1-4.25,6.4,6.4,0,0,0-1.66-4.62,5.8,5.8,0,0,0-4.39-1.75,7.17,7.17,0,0,0-5.39,2.33,8.42,8.42,0,0,0-2.21,6,6.26,6.26,0,0,0,1.68,4.57A5.7,5.7,0,0,0,143.21,34.4Z" transform="translate(-0.02 -5.93)" style="fill:#fff"/><path d="M164.21,5.93h5.89l-1.22,9h3.75L171.92,20h-3.73L165.6,39.06h-5.92l2.6-19h-2.9l.68-5.11H163Z" transform="translate(-0.02 -5.93)" style="fill:#fff"/><path d="M190.09,32l5.22,2.7a12,12,0,0,1-4.66,3.65,15.15,15.15,0,0,1-6.42,1.34c-3.69,0-6.59-1-8.72-3.11a11,11,0,0,1-3.18-8.26,13.66,13.66,0,0,1,4-9.95,13,13,0,0,1,9.63-4.08A12.19,12.19,0,0,1,192,15.77a10.58,10.58,0,0,1,4.18,4.33,12.79,12.79,0,0,1,1.53,6.17,15.48,15.48,0,0,1-.22,2.44H178.21a5.57,5.57,0,0,0,1.65,4,6,6,0,0,0,4.32,1.5A8.76,8.76,0,0,0,190.09,32Zm1.51-7.63A6.29,6.29,0,0,0,189.38,21a6.2,6.2,0,0,0-3.76-1.15A6.88,6.88,0,0,0,181.7,21,7.41,7.41,0,0,0,179,24.36Z" transform="translate(-0.02 -5.93)" style="fill:#fff"/><path d="M201.66,14.9h5.28l-.42,3.29c1.58-2.61,3.49-3.91,5.71-3.91a3.66,3.66,0,0,1,1.66.43l-2.17,5.39a3.48,3.48,0,0,0-1-.25,3.8,3.8,0,0,0-3.09,2q-1.37,2-2.15,8.12l-1.18,9.08h-5.95Z" transform="translate(-0.02 -5.93)" style="fill:#fff"/><path d="M216.47,32.22a3.72,3.72,0,1,1-2.64,1.09A3.59,3.59,0,0,1,216.47,32.22Z" transform="translate(-0.02 -5.93)" style="fill:#fff"/></g></g></svg>